<?xml version="1.0" standalone="no"?>
<!DOCTYPE svg PUBLIC "-//W3C//DTD SVG 20010904//EN"
 "http://www.w3.org/TR/2001/REC-SVG-20010904/DTD/svg10.dtd">
<svg version="1.0" xmlns="http://www.w3.org/2000/svg"
 width="400.000000pt" height="403.000000pt" viewBox="0 0 400.000000 403.000000"
 preserveAspectRatio="xMidYMid meet">

<g transform="translate(0.000000,403.000000) scale(0.100000,-0.100000)"
fill="#000000" stroke="none">
<path d="M870 3155 l-225 -225 453 -453 c248 -248 452 -456 452 -460 0 -5
-201 -211 -447 -458 -247 -247 -449 -453 -451 -457 -1 -4 99 -108 223 -232
l225 -225 453 453 c248 248 457 452 462 452 5 0 214 -204 462 -452 l453 -453
225 225 c124 124 225 229 225 235 0 5 -201 211 -447 457 -247 247 -449 452
-451 456 -1 4 200 210 448 457 247 247 450 455 450 460 0 16 -437 448 -449
444 -6 -2 -213 -206 -461 -454 -247 -247 -453 -445 -457 -441 -157 159 -907
896 -912 896 -3 0 -107 -101 -231 -225z"/>
</g>
</svg>
