<?xml version="1.0" standalone="no"?>
<!DOCTYPE svg PUBLIC "-//W3C//DTD SVG 20010904//EN"
 "http://www.w3.org/TR/2001/REC-SVG-20010904/DTD/svg10.dtd">
<svg version="1.0" xmlns="http://www.w3.org/2000/svg"
 width="180.000000pt" height="171.000000pt" viewBox="0 0 180.000000 171.000000"
 preserveAspectRatio="xMidYMid meet">

<g transform="translate(0.000000,171.000000) scale(0.100000,-0.100000)"
fill="#000000" stroke="none">
<path d="M867 1453 c-4 -3 -7 -62 -7 -130 0 -69 -4 -122 -9 -119 -5 3 -9 52
-10 108 -2 108 -9 130 -36 108 -12 -10 -15 -35 -15 -121 0 -125 -18 -150 -22
-31 -3 69 -5 77 -23 77 -19 0 -20 -8 -23 -134 -2 -119 0 -138 18 -177 59 -122
233 -123 296 -3 17 33 30 173 20 213 -5 21 -12 27 -29 24 -20 -3 -22 -10 -25
-70 -3 -64 -4 -68 -26 -68 -13 0 -40 -11 -60 -25 -20 -13 -36 -20 -36 -15 0
14 48 48 78 55 l27 5 -1 131 c-1 99 -4 133 -15 139 -29 19 -39 -10 -39 -117 0
-62 -4 -102 -9 -98 -6 3 -9 57 -9 119 0 62 -2 119 -6 125 -8 12 -29 15 -39 4z"/>
<path d="M597 930 c-25 -29 -67 -127 -67 -155 0 -9 -9 -15 -22 -15 -20 0 -18
-4 17 -40 l39 -40 39 37 c28 28 34 39 23 41 -24 5 -19 40 15 100 28 51 29 55
14 78 -20 31 -28 30 -58 -6z"/>
<path d="M1100 944 c-11 -4 -14 -16 -12 -54 4 -47 15 -65 25 -37 6 18 43 -31
57 -78 7 -22 14 -46 16 -52 2 -8 19 -13 40 -13 l36 0 -7 38 c-9 50 -41 122
-67 149 -17 19 -19 25 -8 38 11 13 7 15 -26 14 -22 -1 -46 -3 -54 -5z"/>
<path d="M1342 718 c-8 -8 -12 -56 -12 -149 0 -97 -4 -139 -12 -147 -7 -5 -41
-9 -75 -8 l-63 2 0 -47 c0 -123 150 -204 251 -136 58 39 79 81 79 156 0 39 -5
72 -12 79 -17 17 -93 15 -108 -3 -17 -20 -4 -32 35 -37 44 -5 42 -40 -4 -49
-18 -4 -47 -17 -65 -30 l-31 -23 16 24 c9 14 36 33 60 42 36 14 39 17 19 17
-32 1 -50 18 -50 48 0 26 26 43 62 39 24 -3 27 2 47 74 28 104 28 132 -1 128
-20 -3 -27 -16 -48 -95 -14 -51 -28 -93 -32 -93 -5 0 -8 44 -8 98 0 90 -8 122
-30 122 -3 0 -11 -5 -18 -12z"/>
<path d="M384 597 c-3 -8 -4 -43 -2 -78 3 -56 5 -64 23 -64 18 0 20 7 20 75 0
63 -3 75 -18 78 -9 2 -20 -3 -23 -11z"/>
<path d="M454 596 c-3 -7 -4 -42 -2 -77 3 -53 6 -64 22 -67 13 -3 17 0 13 11
-3 8 1 23 8 34 18 22 19 85 3 101 -16 16 -37 15 -44 -2z"/>
<path d="M309 583 c-12 -105 -6 -135 24 -131 20 3 22 9 22 68 0 60 -2 65 -22
68 -13 2 -23 0 -24 -5z"/>
<path d="M529 583 c0 -4 -2 -20 -4 -35 -3 -25 -1 -28 26 -28 28 0 30 2 27 33
-2 24 -8 33 -25 35 -13 2 -23 0 -24 -5z"/>
<path d="M1264 576 c-3 -7 -4 -42 -2 -77 3 -57 5 -64 25 -67 20 -3 21 2 25 63
1 37 -1 73 -5 81 -10 18 -36 18 -43 0z"/>
<path d="M1195 560 c-6 -10 -9 -66 -6 -118 1 -8 10 -12 24 -10 20 3 22 8 22
68 0 52 -3 65 -17 68 -9 2 -19 -2 -23 -8z"/>
<path d="M504 485 c-9 -22 4 -35 36 -35 16 0 32 -5 35 -10 10 -16 -14 -40 -40
-40 -13 0 -37 -12 -54 -26 -17 -14 -31 -21 -31 -15 0 16 65 61 91 62 19 1 17
3 -9 9 -18 4 -42 6 -52 3 -10 -3 -21 0 -24 6 -5 7 -14 7 -31 -1 -19 -8 -28 -8
-40 2 -12 10 -18 10 -30 0 -11 -9 -22 -10 -38 -3 -22 10 -22 10 -17 -48 12
-122 113 -187 225 -144 68 26 99 71 103 157 3 45 0 73 -8 83 -17 20 -108 21
-116 0z"/>
<path d="M945 390 c6 -18 2 -20 -49 -20 -30 0 -66 4 -80 10 -21 8 -28 6 -41
-13 -8 -12 -15 -27 -15 -34 0 -22 51 -35 138 -37 56 -1 85 -5 91 -14 5 -9 15
3 29 37 l21 51 -46 20 c-56 25 -56 25 -48 0z"/>
</g>
</svg>
